<svg id="Layer_1" data-name="Layer 1" xmlns="http://www.w3.org/2000/svg" viewBox="0 0 181.59 179.9"><defs><style>.cls-1{fill:#24ae5f;}</style></defs><title>leafplayer-logo-v1</title><path class="cls-1" d="M173.67,164.38c-.39-3.15-.79-6.13-1.17-8.73a144.58,144.58,0,0,0-3-15.37c3.85-10.67,7-21.62,10.81-34.38-5.08,8.18-9.49,16.1-14,23.79A123.83,123.83,0,0,0,146.5,93.07,70.43,70.43,0,0,1,160,80.47c12.61-9.11,25.93-18.43,40.75-22.54,3.64-1,9-2.12,12.65-2.93C225.19,102.83,209.26,141.33,173.67,164.38Z" transform="translate(-35.65 -38.47)"/><path class="cls-1" d="M174.56,198.67a32.73,32.73,0,0,1-.83,5.29C133,186.18,106.6,154.18,85.28,118.33c12,42.74,42.93,69.34,75.89,98.5l-.78,1.54c-6.81-1.43-11.92-1.93-20.4-4.43-33.11-10.19-62.73-22-82.35-50.23C44.38,144.61,37.47,123.3,36,100.29,34.69,80.54,37.25,61.1,42.48,42c.79-2.89,1.79-3.92,4.7-3.39a161.28,161.28,0,0,1,80.65,39.57A136.42,136.42,0,0,1,144.5,95.92a123.83,123.83,0,0,1,19.81,36.62q1.79,5.18,3.14,10.59a144.58,144.58,0,0,1,3,15.37c.38,2.6.78,5.58,1.17,8.73C173.27,179.86,174.79,195.1,174.56,198.67Z" transform="translate(-35.65 -38.47)"/></svg>