<?xml version="1.0" encoding="utf-8"?><svg xmlns="http://www.w3.org/2000/svg" xmlns:xlink="http://www.w3.org/1999/xlink"><symbol viewBox="0 0 24 24" id="album" xmlns="http://www.w3.org/2000/svg"><path d="M12 2C6.48 2 2 6.48 2 12s4.48 10 10 10 10-4.48 10-10S17.52 2 12 2zm0 14.5c-2.49 0-4.5-2.01-4.5-4.5S9.51 7.5 12 7.5s4.5 2.01 4.5 4.5-2.01 4.5-4.5 4.5zm0-5.5c-.55 0-1 .45-1 1s.45 1 1 1 1-.45 1-1-.45-1-1-1z"/></symbol><symbol viewBox="0 0 24 24" id="cached" xmlns="http://www.w3.org/2000/svg"><path d="M0 0h24v24H0V0z" fill="none"/><path d="M18.65 8.35l-2.79 2.79c-.32.32-.1.86.35.86H18c0 3.31-2.69 6-6 6-.79 0-1.56-.15-2.25-.44-.36-.15-.77-.04-1.04.23-.51.51-.33 1.37.34 1.64.91.37 1.91.57 2.95.57 4.42 0 8-3.58 8-8h1.79c.45 0 .67-.54.35-.85l-2.79-2.79c-.19-.2-.51-.2-.7-.01zM6 12c0-3.31 2.69-6 6-6 .79 0 1.56.15 2.25.44.36.15.77.04 1.04-.23.51-.51.33-1.37-.34-1.64C14.04 4.2 13.04 4 12 4c-4.42 0-8 3.58-8 8H2.21c-.45 0-.67.54-.35.85l2.79 2.79c.2.2.51.2.71 0l2.79-2.79a.5.5 0 00-.36-.85H6z"/></symbol><symbol viewBox="0 0 24 24" id="check_box" xmlns="http://www.w3.org/2000/svg"><path d="M0 0h24v24H0V0z" fill="none"/><path d="M19 3H5c-1.1 0-2 .9-2 2v14c0 1.1.9 2 2 2h14c1.1 0 2-.9 2-2V5c0-1.1-.9-2-2-2zm-8.29 13.29a.996.996 0 01-1.41 0L5.71 12.7a.996.996 0 111.41-1.41L10 14.17l6.88-6.88a.996.996 0 111.41 1.41l-7.58 7.59z"/></symbol><symbol viewBox="0 0 24 24" id="check_box_outline_blank" xmlns="http://www.w3.org/2000/svg"><path d="M0 0h24v24H0V0z" fill="none"/><path d="M18 19H6c-.55 0-1-.45-1-1V6c0-.55.45-1 1-1h12c.55 0 1 .45 1 1v12c0 .55-.45 1-1 1zm1-16H5c-1.1 0-2 .9-2 2v14c0 1.1.9 2 2 2h14c1.1 0 2-.9 2-2V5c0-1.1-.9-2-2-2z"/></symbol><symbol viewBox="0 0 24 24" id="chevron_left" xmlns="http://www.w3.org/2000/svg"><path d="M0 0h24v24H0V0z" fill="none"/><path d="M14.71 6.71a.996.996 0 00-1.41 0L8.71 11.3a.996.996 0 000 1.41l4.59 4.59a.996.996 0 101.41-1.41L10.83 12l3.88-3.88c.39-.39.38-1.03 0-1.41z"/></symbol><symbol viewBox="0 0 24 24" id="close" xmlns="http://www.w3.org/2000/svg"><path d="M0 0h24v24H0V0z" fill="none"/><path d="M18.3 5.71a.996.996 0 00-1.41 0L12 10.59 7.11 5.7A.996.996 0 105.7 7.11L10.59 12 5.7 16.89a.996.996 0 101.41 1.41L12 13.41l4.89 4.89a.996.996 0 101.41-1.41L13.41 12l4.89-4.89c.38-.38.38-1.02 0-1.4z"/></symbol><symbol viewBox="0 0 24 24" id="computer" xmlns="http://www.w3.org/2000/svg"><path d="M20 18c1.1 0 1.99-.9 1.99-2L22 6c0-1.1-.9-2-2-2H4c-1.1 0-2 .9-2 2v10c0 1.1.9 2 2 2H1c-.55 0-1 .45-1 1s.45 1 1 1h22c.55 0 1-.45 1-1s-.45-1-1-1h-3zM5 6h14c.55 0 1 .45 1 1v8c0 .55-.45 1-1 1H5c-.55 0-1-.45-1-1V7c0-.55.45-1 1-1z"/></symbol><symbol viewBox="0 0 24 24" id="error_outline" xmlns="http://www.w3.org/2000/svg"><path d="M12 7c.55 0 1 .45 1 1v4c0 .55-.45 1-1 1s-1-.45-1-1V8c0-.55.45-1 1-1zm-.01-5C6.47 2 2 6.48 2 12s4.47 10 9.99 10C17.52 22 22 17.52 22 12S17.52 2 11.99 2zM12 20c-4.42 0-8-3.58-8-8s3.58-8 8-8 8 3.58 8 8-3.58 8-8 8zm1-3h-2v-2h2v2z"/></symbol><symbol viewBox="0 0 24 24" id="expand_more" xmlns="http://www.w3.org/2000/svg"><path d="M24 24H0V0h24v24z" fill="none" opacity=".87"/><path d="M15.88 9.29L12 13.17 8.12 9.29a.996.996 0 10-1.41 1.41l4.59 4.59c.39.39 1.02.39 1.41 0l4.59-4.59a.996.996 0 000-1.41c-.39-.38-1.03-.39-1.42 0z"/></symbol><symbol viewBox="0 0 24 24" id="explore" xmlns="http://www.w3.org/2000/svg"><path d="M0 0h24v24H0V0z" fill="none"/><path d="M12 10.9c-.61 0-1.1.49-1.1 1.1s.49 1.1 1.1 1.1c.61 0 1.1-.49 1.1-1.1s-.49-1.1-1.1-1.1zM12 2C6.48 2 2 6.48 2 12s4.48 10 10 10 10-4.48 10-10S17.52 2 12 2zm2.19 12.19L6 18l3.81-8.19L18 6l-3.81 8.19z"/></symbol><symbol viewBox="0 0 24 24" id="menu" xmlns="http://www.w3.org/2000/svg"><path d="M0 0h24v24H0V0z" fill="none"/><path d="M4 18h16c.55 0 1-.45 1-1s-.45-1-1-1H4c-.55 0-1 .45-1 1s.45 1 1 1zm0-5h16c.55 0 1-.45 1-1s-.45-1-1-1H4c-.55 0-1 .45-1 1s.45 1 1 1zM3 7c0 .55.45 1 1 1h16c.55 0 1-.45 1-1s-.45-1-1-1H4c-.55 0-1 .45-1 1z"/></symbol><symbol viewBox="0 0 24 24" id="more_vert" xmlns="http://www.w3.org/2000/svg"><path d="M0 0h24v24H0V0z" fill="none"/><path d="M12 8c1.1 0 2-.9 2-2s-.9-2-2-2-2 .9-2 2 .9 2 2 2zm0 2c-1.1 0-2 .9-2 2s.9 2 2 2 2-.9 2-2-.9-2-2-2zm0 6c-1.1 0-2 .9-2 2s.9 2 2 2 2-.9 2-2-.9-2-2-2z"/></symbol><symbol viewBox="0 0 24 24" id="pause" xmlns="http://www.w3.org/2000/svg"><path d="M8 19c1.1 0 2-.9 2-2V7c0-1.1-.9-2-2-2s-2 .9-2 2v10c0 1.1.9 2 2 2zm6-12v10c0 1.1.9 2 2 2s2-.9 2-2V7c0-1.1-.9-2-2-2s-2 .9-2 2z"/></symbol><symbol viewBox="0 0 24 24" id="people_alt" xmlns="http://www.w3.org/2000/svg"><g fill="none"><path d="M0 0h24v24H0z"/><path d="M0 0h24v24H0z"/></g><path d="M16.67 13.13C18.04 14.06 19 15.32 19 17v3h3c.55 0 1-.45 1-1v-2c0-2.18-3.57-3.47-6.33-3.87z" fill-rule="evenodd"/><circle cx="9" cy="8" fill-rule="evenodd" r="4"/><path d="M15 12c2.21 0 4-1.79 4-4s-1.79-4-4-4c-.47 0-.91.1-1.33.24a5.98 5.98 0 010 7.52c.42.14.86.24 1.33.24zM9 13c-2.67 0-8 1.34-8 4v2c0 .55.45 1 1 1h14c.55 0 1-.45 1-1v-2c0-2.66-5.33-4-8-4z" fill-rule="evenodd"/></symbol><symbol viewBox="0 0 24 24" id="person" xmlns="http://www.w3.org/2000/svg"><path d="M0 0h24v24H0V0z" fill="none"/><path d="M12 12c2.21 0 4-1.79 4-4s-1.79-4-4-4-4 1.79-4 4 1.79 4 4 4zm0 2c-2.67 0-8 1.34-8 4v1c0 .55.45 1 1 1h14c.55 0 1-.45 1-1v-1c0-2.66-5.33-4-8-4z"/></symbol><symbol viewBox="0 0 24 24" id="play_arrow" xmlns="http://www.w3.org/2000/svg"><path d="M8 6.82v10.36c0 .79.87 1.27 1.54.84l8.14-5.18a1 1 0 000-1.69L9.54 5.98A.998.998 0 008 6.82z"/></symbol><symbol viewBox="0 0 24 24" id="queue_music" xmlns="http://www.w3.org/2000/svg"><path d="M14 6H4c-.55 0-1 .45-1 1s.45 1 1 1h10c.55 0 1-.45 1-1s-.45-1-1-1zm0 4H4c-.55 0-1 .45-1 1s.45 1 1 1h10c.55 0 1-.45 1-1s-.45-1-1-1zM4 16h6c.55 0 1-.45 1-1s-.45-1-1-1H4c-.55 0-1 .45-1 1s.45 1 1 1zM19 6c-1.1 0-2 .9-2 2v6.18c-.31-.11-.65-.18-1-.18-1.84 0-3.28 1.64-2.95 3.54.21 1.21 1.2 2.2 2.41 2.41 1.9.33 3.54-1.11 3.54-2.95V8h2c.55 0 1-.45 1-1s-.45-1-1-1h-2z"/></symbol><symbol viewBox="0 0 24 24" id="repeat" xmlns="http://www.w3.org/2000/svg"><path d="M7 7h10v1.79c0 .45.54.67.85.35l2.79-2.79c.2-.2.2-.51 0-.71l-2.79-2.79a.5.5 0 00-.85.36V5H6c-.55 0-1 .45-1 1v4c0 .55.45 1 1 1s1-.45 1-1V7zm10 10H7v-1.79c0-.45-.54-.67-.85-.35l-2.79 2.79c-.2.2-.2.51 0 .71l2.79 2.79a.5.5 0 00.85-.36V19h11c.55 0 1-.45 1-1v-4c0-.55-.45-1-1-1s-1 .45-1 1v3z"/></symbol><symbol viewBox="0 0 24 24" id="repeat_one" xmlns="http://www.w3.org/2000/svg"><path d="M7 7h10v1.79c0 .45.54.67.85.35l2.79-2.79c.2-.2.2-.51 0-.71l-2.79-2.79a.5.5 0 00-.85.36V5H6c-.55 0-1 .45-1 1v4c0 .55.45 1 1 1s1-.45 1-1V7zm10 10H7v-1.79c0-.45-.54-.67-.85-.35l-2.79 2.79c-.2.2-.2.51 0 .71l2.79 2.79a.5.5 0 00.85-.36V19h11c.55 0 1-.45 1-1v-4c0-.55-.45-1-1-1s-1 .45-1 1v3zm-4-2.75V9.81c0-.45-.36-.81-.81-.81a.74.74 0 00-.36.09l-1.49.74a.61.61 0 00-.34.55c0 .34.28.62.62.62h.88v3.25c0 .41.34.75.75.75s.75-.34.75-.75z"/></symbol><symbol viewBox="0 0 24 24" id="schedule" xmlns="http://www.w3.org/2000/svg"><path d="M0 0h24v24H0V0z" fill="none"/><path d="M11.99 2C6.47 2 2 6.48 2 12s4.47 10 9.99 10C17.52 22 22 17.52 22 12S17.52 2 11.99 2zM12 20c-4.42 0-8-3.58-8-8s3.58-8 8-8 8 3.58 8 8-3.58 8-8 8zm-.22-13h-.06c-.4 0-.72.32-.72.72v4.72c0 .35.18.68.49.86l4.15 2.49c.34.2.78.1.98-.24a.71.71 0 00-.25-.99l-3.87-2.3V7.72c0-.4-.32-.72-.72-.72z"/></symbol><symbol viewBox="0 0 24 24" id="search" xmlns="http://www.w3.org/2000/svg"><path d="M0 0h24v24H0V0z" fill="none"/><path d="M15.5 14h-.79l-.28-.27a6.5 6.5 0 001.48-5.34c-.47-2.78-2.79-5-5.59-5.34a6.505 6.505 0 00-7.27 7.27c.34 2.8 2.56 5.12 5.34 5.59a6.5 6.5 0 005.34-1.48l.27.28v.79l4.25 4.25c.41.41 1.08.41 1.49 0 .41-.41.41-1.08 0-1.49L15.5 14zm-6 0C7.01 14 5 11.99 5 9.5S7.01 5 9.5 5 14 7.01 14 9.5 11.99 14 9.5 14z"/></symbol><symbol viewBox="0 0 24 24" id="settings" xmlns="http://www.w3.org/2000/svg"><path fill="none" d="M0 0h24v24H0z"/><path d="M19.5 12c0-.23-.01-.45-.03-.68l1.86-1.41c.4-.3.51-.86.26-1.3l-1.87-3.23a.987.987 0 00-1.25-.42l-2.15.91c-.37-.26-.76-.49-1.17-.68l-.29-2.31c-.06-.5-.49-.88-.99-.88h-3.73c-.51 0-.94.38-1 .88l-.29 2.31c-.41.19-.8.42-1.17.68l-2.15-.91c-.46-.2-1-.02-1.25.42L2.41 8.62c-.25.44-.14.99.26 1.3l1.86 1.41a7.343 7.343 0 000 1.35l-1.86 1.41c-.4.3-.51.86-.26 1.3l1.87 3.23c.25.44.79.62 1.25.42l2.15-.91c.37.26.76.49 1.17.68l.29 2.31c.06.5.49.88.99.88h3.73c.5 0 .93-.38.99-.88l.29-2.31c.41-.19.8-.42 1.17-.68l2.15.91c.46.2 1 .02 1.25-.42l1.87-3.23c.25-.44.14-.99-.26-1.3l-1.86-1.41c.03-.23.04-.45.04-.68zm-7.46 3.5c-1.93 0-3.5-1.57-3.5-3.5s1.57-3.5 3.5-3.5 3.5 1.57 3.5 3.5-1.57 3.5-3.5 3.5z"/></symbol><symbol viewBox="0 0 24 24" id="shuffle" xmlns="http://www.w3.org/2000/svg"><path d="M10.59 9.17L6.12 4.7a.996.996 0 10-1.41 1.41l4.46 4.46 1.42-1.4zm4.76-4.32l1.19 1.19L4.7 17.88a.996.996 0 101.41 1.41L17.96 7.46l1.19 1.19a.5.5 0 00.85-.36V4.5c0-.28-.22-.5-.5-.5h-3.79a.5.5 0 00-.36.85zm-.52 8.56l-1.41 1.41 3.13 3.13-1.2 1.2a.5.5 0 00.36.85h3.79c.28 0 .5-.22.5-.5v-3.79c0-.45-.54-.67-.85-.35l-1.19 1.19-3.13-3.14z"/></symbol><symbol viewBox="0 0 24 24" id="skip_next" xmlns="http://www.w3.org/2000/svg"><path d="M7.58 16.89l5.77-4.07c.56-.4.56-1.24 0-1.63L7.58 7.11C6.91 6.65 6 7.12 6 7.93v8.14c0 .81.91 1.28 1.58.82zM16 7v10c0 .55.45 1 1 1s1-.45 1-1V7c0-.55-.45-1-1-1s-1 .45-1 1z"/></symbol><symbol viewBox="0 0 24 24" id="skip_previous" xmlns="http://www.w3.org/2000/svg"><path d="M7 6c.55 0 1 .45 1 1v10c0 .55-.45 1-1 1s-1-.45-1-1V7c0-.55.45-1 1-1zm3.66 6.82l5.77 4.07c.66.47 1.58-.01 1.58-.82V7.93c0-.81-.91-1.28-1.58-.82l-5.77 4.07a1 1 0 000 1.64z"/></symbol><symbol viewBox="0 0 24 24" id="volume_down" xmlns="http://www.w3.org/2000/svg"><path d="M18.5 12A4.5 4.5 0 0016 7.97v8.05c1.48-.73 2.5-2.25 2.5-4.02zM5 10v4c0 .55.45 1 1 1h3l3.29 3.29c.63.63 1.71.18 1.71-.71V6.41c0-.89-1.08-1.34-1.71-.71L9 9H6c-.55 0-1 .45-1 1z"/></symbol><symbol viewBox="0 0 24 24" id="volume_off" xmlns="http://www.w3.org/2000/svg"><path d="M3.63 3.63a.996.996 0 000 1.41L7.29 8.7 7 9H4c-.55 0-1 .45-1 1v4c0 .55.45 1 1 1h3l3.29 3.29c.63.63 1.71.18 1.71-.71v-4.17l4.18 4.18c-.49.37-1.02.68-1.6.91-.36.15-.58.53-.58.92 0 .72.73 1.18 1.39.91.8-.33 1.55-.77 2.22-1.31l1.34 1.34a.996.996 0 101.41-1.41L5.05 3.63c-.39-.39-1.02-.39-1.42 0zM19 12c0 .82-.15 1.61-.41 2.34l1.53 1.53c.56-1.17.88-2.48.88-3.87 0-3.83-2.4-7.11-5.78-8.4-.59-.23-1.22.23-1.22.86v.19c0 .38.25.71.61.85C17.18 6.54 19 9.06 19 12zm-8.71-6.29l-.17.17L12 7.76V6.41c0-.89-1.08-1.33-1.71-.7zM16.5 12A4.5 4.5 0 0014 7.97v1.79l2.48 2.48c.01-.08.02-.16.02-.24z"/></symbol><symbol viewBox="0 0 24 24" id="volume_up" xmlns="http://www.w3.org/2000/svg"><path d="M3 10v4c0 .55.45 1 1 1h3l3.29 3.29c.63.63 1.71.18 1.71-.71V6.41c0-.89-1.08-1.34-1.71-.71L7 9H4c-.55 0-1 .45-1 1zm13.5 2A4.5 4.5 0 0014 7.97v8.05c1.48-.73 2.5-2.25 2.5-4.02zM14 4.45v.2c0 .38.25.71.6.85C17.18 6.53 19 9.06 19 12s-1.82 5.47-4.4 6.5c-.36.14-.6.47-.6.85v.2c0 .63.63 1.07 1.21.85C18.6 19.11 21 15.84 21 12s-2.4-7.11-5.79-8.4c-.58-.23-1.21.22-1.21.85z"/></symbol></svg>